<?xml version="1.0" standalone="no"?>
<!DOCTYPE svg PUBLIC "-//W3C//DTD SVG 20010904//EN"
 "http://www.w3.org/TR/2001/REC-SVG-20010904/DTD/svg10.dtd">
<svg version="1.0" xmlns="http://www.w3.org/2000/svg"
 width="500.000000pt" height="174.000000pt" viewBox="0 0 500.000000 174.000000"
 preserveAspectRatio="xMidYMid meet">

<g transform="translate(0.000000,174.000000) scale(0.100000,-0.100000)"
fill="#E879F9" stroke="none">
<path d="M320 935 l0 -495 185 0 185 0 0 122 c0 121 0 122 -46 240 -26 65 -44
122 -40 125 3 3 8 4 10 2 3 -2 36 -85 74 -184 l70 -180 172 0 173 0 70 180
c76 195 74 191 83 182 4 -4 -14 -61 -40 -127 -45 -120 -46 -123 -46 -241 l0
-119 185 0 185 0 0 280 0 279 -125 205 c-69 113 -125 207 -125 210 0 3 57 7
128 9 92 2 71 3 -79 5 l-206 2 -100 -231 c-82 -188 -103 -228 -111 -213 -5 11
-51 115 -102 232 l-93 212 -203 0 -204 0 0 -495z"/>
<path d="M4107 1399 c-85 -12 -126 -26 -185 -59 -93 -54 -151 -161 -152 -282
0 -68 27 -165 53 -186 7 -6 39 -12 71 -14 36 -2 61 -8 64 -15 3 -10 -21 -13
-97 -13 l-101 0 0 -50 c0 -45 6 -58 80 -164 44 -63 80 -117 80 -120 0 -3 -36
-6 -80 -6 l-80 0 0 -35 0 -35 298 0 c163 0 327 5 364 10 146 21 243 83 295
188 24 48 28 69 28 137 -1 88 -20 144 -69 203 l-28 32 -170 0 -169 0 20 -26
c38 -48 24 -111 -29 -139 -67 -35 -140 16 -140 98 0 27 7 41 31 61 l31 26 269
0 269 0 0 200 0 200 -297 -1 c-164 -1 -324 -5 -356 -10z"/>
<path d="M1379 1353 c5 -10 82 -137 170 -283 l161 -264 0 -133 0 -133 155 0
155 0 0 135 0 134 45 74 45 75 0 151 0 151 93 0 c77 0 94 3 103 18 5 9 20 34
33 55 l23 37 -180 0 -180 0 -62 -107 -62 -108 31 -58 c17 -33 26 -57 20 -55
-6 2 -54 77 -106 166 l-95 162 -179 0 c-168 0 -179 -1 -170 -17z"/>
<path d="M2950 955 l0 -415 150 0 150 0 0 161 c0 88 3 158 8 155 4 -2 52 -74
107 -160 l100 -155 183 -1 c100 0 182 3 182 6 0 3 -60 92 -133 197 -74 106
-137 197 -140 203 -4 7 52 105 123 218 l129 206 -184 0 -185 0 -92 -157 -93
-158 -3 158 -3 157 -149 0 -150 0 0 -415z"/>
<path d="M2160 795 l0 -415 150 0 150 0 0 161 c0 88 3 158 8 155 4 -2 52 -74
107 -160 l100 -155 183 -1 c100 0 182 3 182 8 0 4 -16 28 -35 55 -30 40 -40
47 -70 47 l-35 0 0 51 c0 47 -6 59 -67 147 -36 52 -66 101 -66 107 0 7 30 60
66 118 l67 107 0 95 0 95 -125 0 -125 0 -92 -157 -93 -158 -3 158 -3 157 -149
0 -150 0 0 -415z"/>
</g>
</svg>
